<?xml version="1.0" encoding="UTF-8" standalone="no"?>
<svg
   xmlns:dc="http://purl.org/dc/elements/1.1/"
   xmlns:cc="http://creativecommons.org/ns#"
   xmlns:rdf="http://www.w3.org/1999/02/22-rdf-syntax-ns#"
   xmlns:svg="http://www.w3.org/2000/svg"
   xmlns="http://www.w3.org/2000/svg"
   xmlns:sodipodi="http://sodipodi.sourceforge.net/DTD/sodipodi-0.dtd"
   xmlns:inkscape="http://www.inkscape.org/namespaces/inkscape"
   version="1.0"
   width="167pt"
   height="167pt"
   viewBox="0 0 167 167"
   preserveAspectRatio="xMidYMid meet"
   id="svg3773"
   sodipodi:docname="formavanza1.svg"
   inkscape:version="0.92.4 (5da689c313, 2019-01-14)">
  <metadata
     id="metadata3779">
    <rdf:RDF>
      <cc:Work
         rdf:about="">
        <dc:format>image/svg+xml</dc:format>
        <dc:type
           rdf:resource="http://purl.org/dc/dcmitype/StillImage" />
        <dc:title></dc:title>
      </cc:Work>
    </rdf:RDF>
  </metadata>
  <defs
     id="defs3777" />
  <sodipodi:namedview
     pagecolor="#ffffff"
     bordercolor="#666666"
     borderopacity="1"
     objecttolerance="10"
     gridtolerance="10"
     guidetolerance="10"
     inkscape:pageopacity="0"
     inkscape:pageshadow="2"
     inkscape:window-width="1366"
     inkscape:window-height="705"
     id="namedview3775"
     showgrid="false"
     inkscape:zoom="1.03"
     inkscape:cx="63.704966"
     inkscape:cy="66.465372"
     inkscape:window-x="-8"
     inkscape:window-y="-8"
     inkscape:window-maximized="1"
     inkscape:current-layer="svg3773"
     height="666pt" />
  <g
     transform="matrix(0.1,0,0,-0.1,0,167.00001)"
     id="g3771"
     style="fill:#000000;stroke:none" />
  <g
     id="g4612"
     transform="translate(0,1.1148476e-5)">
    <path
       inkscape:connector-curvature="0"
       id="path869"
       d="m 119.23409,93.055422 c -2.90806,-5.73877 -21.931977,-50.229479 -21.931977,-51.291699 0,-1.18661 -0.0875,-1.20329 10.858977,2.06958 22.95089,6.86201 38.84176,12.840039 42.36497,15.937389 1.97576,1.73696 1.82207,5.60517 -0.34806,8.75948 -2.15078,3.1262 -27.26528,28.70727 -28.18367,28.70727 -0.35258,0 -1.59468,-1.8819 -2.76024,-4.18202 z"
       style="fill:#ff7f2a;stroke:none;stroke-width:0;stroke-miterlimit:4;stroke-dasharray:none;stroke-opacity:1" />
    <path
       inkscape:connector-curvature="0"
       id="path871"
       d="m 47.707173,91.639662 c -4.1063,-15.25384 -11.97959,-52.381779 -12.0467,-56.808469 -0.0654,-4.31347 0.17668,-5.04846 2.25098,-6.8342 1.76191,-1.51681 3.28933,-2.00093 6.31304,-2.00093 4.23758,0 17.00401,3.38623 26.62102,7.0611 5.16363,1.97313 5.74601,2.41522 5.2676,3.99866 -2.25006,7.4474 -24.73652,59.796949 -26.02843,60.595379 -0.358,0.22127 -1.42788,-2.48393 -2.37751,-6.01154 z"
       style="fill:#ff7f2a;stroke:none;stroke-width:0;stroke-miterlimit:4;stroke-dasharray:none;stroke-opacity:1" />
    <path
       inkscape:connector-curvature="0"
       id="path873"
       d="m 75.971393,81.290972 c 4.10897,-7.85933 7.72266,-14.57298 8.03042,-14.91921 0.30776,-0.34623 3.57983,6.08414 7.27127,14.2897 l 6.71171,14.91921 h -14.74212 -14.74212 z"
       style="fill:#ff7f2a;stroke:none;stroke-width:0;stroke-miterlimit:4;stroke-dasharray:none;stroke-opacity:1" />
    <path
       inkscape:connector-curvature="0"
       id="path875"
       d="m 63.433883,145.58911 c -2.77422,-1.94314 -5.87669,-9.11878 -5.88631,-13.61431 -0.0124,-5.793 1.58038,-13.11955 3.80772,-17.51499 l 2.01082,-3.96815 h 19.03897 c 16.13743,0 19.038977,0.18428 19.038977,1.20917 0,2.60073 -21.935637,29.45889 -27.297147,33.42283 -2.95244,2.18283 -7.95107,2.4 -10.71303,0.46545 z"
       style="fill:#ffcc00;stroke:none;stroke-width:0;stroke-miterlimit:4;stroke-dasharray:none;stroke-opacity:1" />
    <path
       inkscape:connector-curvature="0"
       id="path877"
       d="m 48.372553,94.549332 c -1.77157,-6.57913 -8.08228,-34.13182 -10.73013,-46.847999 -1.70699,-8.19771 -2.45178,-13.66991 -2.10913,-15.49639 0.74446,-3.96834 3.89118,-6.20888 8.72002,-6.20888 4.31889,0 18.51931,3.75601 26.92963,7.12289 6.32415,2.53173 6.28137,0.91591 0.41451,15.65778 -8.1942,20.589899 -20.95141,49.289099 -21.90969,49.289099 -0.20257,0 -0.79441,-1.58242 -1.31521,-3.5165 z"
       style="fill:#ffcc00;stroke:none;stroke-width:0;stroke-miterlimit:4;stroke-dasharray:none;stroke-opacity:1" />
    <path
       inkscape:connector-curvature="0"
       id="path879"
       d="m 119.71025,94.005542 c -4.25076,-8.33219 -22.408137,-50.814829 -22.408137,-52.428119 0,-1.18416 3.401777,-0.28196 23.194867,6.15166 18.15784,5.902089 27.33261,9.563859 29.99125,11.969889 2.00943,1.81851 1.87465,5.65545 -0.31023,8.8312 -2.14675,3.12035 -27.26443,28.70727 -28.18079,28.70727 -0.351,0 -1.38012,-1.45435 -2.28696,-3.2319 z"
       style="fill:#ffcc00;stroke:none;stroke-width:0;stroke-miterlimit:4;stroke-dasharray:none;stroke-opacity:1" />
    <path
       inkscape:connector-curvature="0"
       id="path881"
       d="m 69.780333,92.888412 c 0.88381,-1.48075 4.49086,-8.21753 8.01566,-14.97064 3.52481,-6.7531 6.53686,-12.15025 6.69345,-11.99366 0.1566,0.15659 3.2641,6.89337 6.90558,14.97063 l 6.62086,14.68593 h -14.92124 -14.92124 z"
       style="fill:#000080;stroke:none;stroke-width:0;stroke-miterlimit:4;stroke-dasharray:none;stroke-opacity:1" />
    <path
       inkscape:connector-curvature="0"
       id="path885"
       d="m 71.457493,89.574862 c 1.79576,-3.3032 5.43832,-10.09912 8.09457,-15.10205 l 4.82954,-9.09622 2.8568,6.19687 c 1.57124,3.40827 4.64634,10.20419 6.83355,15.10204 l 3.97677,8.90517 h -14.92812 -14.92812 z"
       style="fill:#006680;stroke:none;stroke-width:0;stroke-miterlimit:4;stroke-dasharray:none;stroke-opacity:1" />
    <path
       inkscape:connector-curvature="0"
       id="path913"
       d="m 71.850083,88.746472 c 2.02166,-3.75881 5.61865,-10.46876 7.99332,-14.91099 2.37467,-4.44223 4.43581,-8.07679 4.58032,-8.07679 0.22728,0 5.20059,10.78399 11.74751,25.47294 l 1.93838,4.34904 h -14.96763 -14.96762 z"
       style="fill:#2c89a0;stroke:none;stroke-width:0;stroke-miterlimit:4;stroke-dasharray:none;stroke-opacity:1" />
    <path
       inkscape:connector-curvature="0"
       id="path923"
       d="m 118.9493,92.474222 c -4.4936,-8.91863 -21.647187,-49.262969 -21.647187,-50.913049 0,-1.1828 3.639567,-0.21631 23.194867,6.15944 18.20514,5.935559 27.34981,9.587889 29.99125,11.978359 2.20905,1.99916 1.88567,6.26428 -0.72154,9.51682 -3.13712,3.91358 -27.05284,28.02165 -27.79808,28.02165 -0.34067,0 -1.69936,-2.14344 -3.01931,-4.76322 z"
       style="fill:#ffcc00;stroke:none;stroke-width:0;stroke-miterlimit:4;stroke-dasharray:none;stroke-opacity:1" />
  </g>
</svg>
