<?xml version="1.0" encoding="UTF-8" standalone="no"?>
<svg
   xmlns:dc="http://purl.org/dc/elements/1.1/"
   xmlns:cc="http://creativecommons.org/ns#"
   xmlns:rdf="http://www.w3.org/1999/02/22-rdf-syntax-ns#"
   xmlns:svg="http://www.w3.org/2000/svg"
   xmlns="http://www.w3.org/2000/svg"
   xmlns:sodipodi="http://sodipodi.sourceforge.net/DTD/sodipodi-0.dtd"
   xmlns:inkscape="http://www.inkscape.org/namespaces/inkscape"
   version="1.0"
   width="667pt"
   height="167pt"
   viewBox="0 0 667 167"
   preserveAspectRatio="xMidYMid meet"
   id="svg3773"
   sodipodi:docname="formavanza.svg"
   inkscape:version="0.92.4 (5da689c313, 2019-01-14)">
  <metadata
     id="metadata3779">
    <rdf:RDF>
      <cc:Work
         rdf:about="">
        <dc:format>image/svg+xml</dc:format>
        <dc:type
           rdf:resource="http://purl.org/dc/dcmitype/StillImage" />
        <dc:title />
      </cc:Work>
    </rdf:RDF>
  </metadata>
  <defs
     id="defs3777" />
  <sodipodi:namedview
     pagecolor="#ffffff"
     bordercolor="#666666"
     borderopacity="1"
     objecttolerance="10"
     gridtolerance="10"
     guidetolerance="10"
     inkscape:pageopacity="0"
     inkscape:pageshadow="2"
     inkscape:window-width="1366"
     inkscape:window-height="705"
     id="namedview3775"
     showgrid="false"
     inkscape:zoom="1.03"
     inkscape:cx="464.89472"
     inkscape:cy="66.465372"
     inkscape:window-x="-8"
     inkscape:window-y="-8"
     inkscape:window-maximized="1"
     inkscape:current-layer="svg3773" />
  <g
     transform="matrix(0.1,0,0,-0.1,0,167)"
     id="g3771"
     style="fill:#000000;stroke:none" />
  <path
     style="fill:#000080;stroke:none;stroke-width:0;stroke-miterlimit:4;stroke-dasharray:none;stroke-opacity:1"
     d="M 50.724405,125.42443 C 48.867649,124.25055 48.386024,114.47763 48.30449,76.320642 L 48.23236,42.563823 h 29.447338 29.447332 l 2.03142,2.19194 c 2.5611,2.76347 2.54635,3.69432 -0.10053,6.34119 -2.5825,2.582499 -4.56357,2.832029 -27.275831,3.435489 -9.112276,0.2421 -17.406513,0.67389 -18.431643,0.95951 -1.822446,0.50778 -1.863874,0.78415 -1.863874,12.43433 v 11.91501 h 6.929584 c 5.756134,0 7.2992,0.29075 9.112271,1.71691 2.880922,2.26612 2.880427,5.64331 -0.0013,8.52499 -1.98284,1.98283 -2.773387,2.18393 -8.585483,2.18393 h -6.401545 l -0.526793,3.84337 c -0.289734,2.11385 -0.526791,5.944558 -0.526791,8.512708 0,7.78702 -1.647019,18.56724 -3.078376,20.14887 -1.418331,1.56723 -5.66625,1.92789 -7.683789,0.65236 z"
     id="path851"
     inkscape:connector-curvature="0" />
  <path
     style="fill:#000080;stroke:none;stroke-width:0;stroke-miterlimit:4;stroke-dasharray:none;stroke-opacity:1"
     d="m 110.96991,125.36908 c -8.13707,-2.01978 -13.780081,-7.05571 -15.898058,-14.18771 -1.535535,-5.17071 -1.778723,-26.961638 -0.363615,-32.581548 1.183935,-4.70184 5.231655,-9.36921 10.799883,-12.45319 3.83064,-2.12162 5.29083,-2.45581 10.65208,-2.43791 7.50563,0.0251 13.05019,2.51205 17.69298,7.9361 4.55023,5.31592 4.93555,7.39241 4.5041,24.27208 -0.42449,16.607188 -0.78188,17.955978 -6.19104,23.365138 -5.27954,5.27954 -14.16714,7.83183 -21.19633,6.08704 z m 12.98139,-14.11243 c 2.402,-1.41721 2.81667,-2.17233 3.2713,-5.95719 0.28635,-2.38385 0.52388,-8.521438 0.52784,-13.639078 l 0.007,-9.30483 -3.58575,-3.74229 c -4.29446,-4.48194 -7.2054,-4.85772 -12.69753,-1.63911 -5.67961,3.32847 -6.4974,5.61824 -6.4974,18.19233 0,9.827518 0.16225,10.996508 1.85579,13.370738 1.02069,1.43093 3.37222,3.35196 5.22562,4.26896 3.75668,1.85865 6.78529,1.46406 11.89293,-1.54953 z"
     id="path853"
     inkscape:connector-curvature="0" />
  <path
     style="fill:#000080;stroke:none;stroke-width:0;stroke-miterlimit:4;stroke-dasharray:none;stroke-opacity:1"
     d="m 148.36167,124.85482 c -1.58341,-1.91669 -1.5988,-58.551098 -0.0163,-60.134428 0.74181,-0.74221 4.92338,-1.03267 14.86676,-1.03267 12.95509,0 14.02747,0.11992 16.86782,1.88616 3.3465,2.08098 4.96583,5.4415 3.94797,8.19304 -0.92687,2.50559 -3.24347,3.00747 -10.79596,2.33892 -11.45775,-1.01424 -11.77864,-0.30117 -13.03301,28.960978 -0.74219,17.314 -0.86755,18.25553 -2.61956,19.67422 -2.35003,1.90294 -7.68521,1.96879 -9.21768,0.11378 z"
     id="path855"
     inkscape:connector-curvature="0" />
  <path
     style="fill:#000080;stroke:none;stroke-width:0;stroke-miterlimit:4;stroke-dasharray:none;stroke-opacity:1"
     d="m 193.08498,124.64701 -1.95564,-1.58402 V 99.930992 76.798982 l 2.35985,-3.40462 c 3.28242,-4.73563 9.89252,-9.07172 15.55648,-10.20473 4.49272,-0.89871 4.91536,-0.82383 11.63152,2.06082 3.83316,1.64637 7.35383,2.99341 7.82369,2.99341 0.46986,0 3.02983,-1.17832 5.68882,-2.61849 8.97622,-4.86173 16.69573,-3.41873 24.99073,4.6715 5.79271,5.64969 6.24418,8.17509 5.92563,33.146068 -0.23597,18.49719 -0.34419,19.67921 -1.9062,20.82023 -2.30493,1.68371 -5.35027,1.10932 -7.18085,-1.35441 -1.36267,-1.83397 -1.6172,-4.44446 -2.15423,-22.09406 -0.59844,-19.668028 -0.64386,-20.051498 -2.62467,-22.159968 -3.84471,-4.09251 -10.2273,-4.46073 -13.38802,-0.77238 -2.18765,2.55284 -2.43114,4.0894 -3.25427,20.53579 -1.01356,20.251388 -1.4757,24.221828 -2.9963,25.742418 -1.71871,1.71872 -5.52534,1.55384 -7.86617,-0.3407 -1.94846,-1.57697 -1.95668,-1.66053 -2.23517,-22.71821 l -0.27953,-21.135418 -3.24156,-2.2464 c -5.71356,-3.9595 -12.01153,-2.64841 -14.16995,2.94985 -0.43916,1.13903 -1.09717,10.64479 -1.46224,21.123898 -0.36507,10.47911 -0.94009,19.71908 -1.27782,20.53325 -0.51076,1.2313 -4.38907,3.9042 -5.66489,3.9042 -0.19996,0 -1.24361,-0.7128 -2.31921,-1.58402 z"
     id="path857"
     inkscape:connector-curvature="0" />
  <path
     style="fill:#000080;stroke:none;stroke-width:0;stroke-miterlimit:4;stroke-dasharray:none;stroke-opacity:1"
     d="m 384.50024,125.00708 c -2.53829,-1.38035 -8.34939,-13.29614 -12.47659,-25.583518 l -2.74379,-8.16875 2.30073,-1.97901 c 4.56394,-3.92574 7.29538,-2.12627 11.8291,7.79298 2.64981,5.797488 3.01929,6.242758 4.03673,4.864898 0.61597,-0.83416 4.41178,-8.803728 8.43513,-17.710138 9.42375,-20.86117 11.91163,-23.6734 16.53227,-18.68765 2.55497,2.75686 2.39455,3.8974 -2.12489,15.10696 -6.22851,15.44857 -18.38108,42.675088 -19.69712,44.129308 -1.57218,1.73724 -3.21267,1.8005 -6.09157,0.23492 z"
     id="path859"
     inkscape:connector-curvature="0" />
  <path
     style="fill:#000080;stroke:none;stroke-width:0;stroke-miterlimit:4;stroke-dasharray:none;stroke-opacity:1"
     d="m 437.56782,124.65566 c -6.67632,-0.94269 -13.60128,-6.65182 -15.83821,-13.05746 -0.74434,-2.13147 -1.10727,-7.40447 -1.10246,-16.017528 0.0109,-19.49258 2.17192,-24.79137 12.14286,-29.7739 9.80083,-4.89754 19.6666,-2.81695 28.00003,5.9049 2.31321,2.42103 4.41419,5.22471 4.66885,6.23039 0.55833,2.20496 0.0623,45.511148 -0.52724,46.034968 -0.73923,0.65678 -23.49823,1.22162 -27.34383,0.67863 z m 13.11339,-14.45798 3.0472,-3.04719 V 94.784492 82.418482 l -2.87584,-2.96712 c -4.05714,-4.1859 -8.04934,-5.2534 -12.10787,-3.23759 -5.43631,2.70012 -6.51536,5.03638 -6.83485,14.79823 -0.36023,11.006078 0.91368,17.340948 4.13491,20.562188 2.23138,2.23138 2.80495,2.39916 7.00975,2.05046 3.92155,-0.32521 5.01732,-0.81757 7.6267,-3.42697 z"
     id="path861"
     inkscape:connector-curvature="0" />
  <path
     style="fill:#000080;stroke:none;stroke-width:0;stroke-miterlimit:4;stroke-dasharray:none;stroke-opacity:1"
     d="m 477.41028,124.78136 c -2.36615,-1.94066 -3.3755,-8.5614 -3.38156,-22.18112 -0.006,-13.263068 1.22769,-23.650048 3.28849,-27.689548 2.10365,-4.12348 7.22901,-8.60436 11.86866,-10.37627 11.41403,-4.35905 26.95666,2.85853 29.61299,13.75148 1.54688,6.34341 1.61613,40.747878 0.0893,44.364958 -1.43341,3.39576 -3.25344,4.04284 -5.88897,2.09373 -4.00263,-2.96016 -4.44471,-5.12565 -5.02514,-24.6156 -0.3433,-11.527488 -0.90658,-18.911748 -1.53172,-20.079838 -2.82037,-5.2699 -14.03341,-5.81692 -18.11603,-0.88377 -0.52843,0.63853 -1.27414,8.98283 -1.80011,20.14304 -0.9521,20.201908 -1.68234,24.736988 -4.20015,26.084478 -2.15372,1.15263 -2.87402,1.06302 -4.91574,-0.61154 z"
     id="path863"
     inkscape:connector-curvature="0" />
  <path
     style="fill:#000080;stroke:none;stroke-width:0;stroke-miterlimit:4;stroke-dasharray:none;stroke-opacity:1"
     d="m 532.42498,125.08296 c -4.84423,-2.11121 -5.05696,-3.19024 -1.77004,-8.97798 1.62395,-2.85952 7.98723,-12.46824 14.14063,-21.352698 6.15339,-8.88446 11.19942,-16.75715 11.21339,-17.49486 0.0314,-1.6597 -3.71538,-2.36473 -12.63413,-2.37734 -7.33098,-0.0103 -11.75697,-1.47503 -12.61364,-4.17414 -0.78401,-2.47021 1.05612,-5.68014 3.67992,-6.41928 1.16937,-0.32942 10.03912,-0.59894 19.71055,-0.59894 h 17.58443 l 2.25447,2.25448 c 2.25084,2.25083 2.25216,2.25934 0.81744,5.26796 -0.79036,1.65741 -5.29411,8.47117 -10.00833,15.14168 -13.17962,18.648848 -18.06684,27.269218 -15.59951,27.515348 0.34171,0.034 5.90172,0.32048 12.35557,0.63642 9.81876,0.48068 12.01621,0.82959 13.46131,2.13739 2.15936,1.95419 2.21563,4.74914 0.13356,6.63339 -2.83857,2.56886 -37.60441,4.0405 -42.72562,1.80857 z"
     id="path865"
     inkscape:connector-curvature="0" />
  <path
     style="fill:#ff7f2a;stroke:none;stroke-width:0;stroke-miterlimit:4;stroke-dasharray:none;stroke-opacity:1"
     d="m 596.74829,123.54468 c -5.13697,-2.64392 -8.93476,-7.2085 -10.51219,-12.63467 -1.83024,-6.29581 -2.17025,-31.329158 -0.467,-34.382268 4.37472,-7.84172 11.16246,-12.3752 19.53495,-13.04726 9.2605,-0.74335 17.09467,3.28631 21.71435,11.16919 2.11424,3.60768 2.26232,4.59385 2.94501,19.61324 0.39536,8.697998 0.41835,19.169518 0.0511,23.270048 l -0.66776,7.4555 -14.49679,0.20577 c -13.60776,0.19317 -14.71787,0.092 -18.10164,-1.64955 z m 15.16446,-10.91286 c 4.41789,-1.84591 5.5162,-4.31926 6.02595,-13.570218 0.85038,-15.43236 -0.82742,-20.57717 -7.44748,-22.83709 -4.32272,-1.47567 -7.46423,-0.80769 -11.13834,2.36832 l -3.14169,2.71578 v 11.89926 c 0,13.387018 0.73943,16.266658 4.85379,18.902598 3.06634,1.9645 6.94738,2.15103 10.84777,0.52135 z"
     id="path867"
     inkscape:connector-curvature="0" />
  <path
     style="fill:#ff7f2a;stroke:none;stroke-width:0;stroke-miterlimit:4;stroke-dasharray:none;stroke-opacity:1"
     d="m 349.33118,93.055422 c -2.90806,-5.73877 -21.93198,-50.229479 -21.93198,-51.291699 0,-1.18661 -0.0875,-1.20329 10.85898,2.06958 22.95089,6.86201 38.84176,12.840039 42.36497,15.937389 1.97576,1.73696 1.82207,5.60517 -0.34806,8.75948 -2.15078,3.1262 -27.26528,28.70727 -28.18367,28.70727 -0.35258,0 -1.59468,-1.8819 -2.76024,-4.18202 z"
     id="path869"
     inkscape:connector-curvature="0" />
  <path
     style="fill:#ff7f2a;stroke:none;stroke-width:0;stroke-miterlimit:4;stroke-dasharray:none;stroke-opacity:1"
     d="m 277.80426,91.639662 c -4.1063,-15.25384 -11.97959,-52.381779 -12.0467,-56.808469 -0.0654,-4.31347 0.17668,-5.04846 2.25098,-6.8342 1.76191,-1.51681 3.28933,-2.00093 6.31304,-2.00093 4.23758,0 17.00401,3.38623 26.62102,7.0611 5.16363,1.97313 5.74601,2.41522 5.2676,3.99866 -2.25006,7.4474 -24.73652,59.796949 -26.02843,60.595379 -0.358,0.22127 -1.42788,-2.48393 -2.37751,-6.01154 z"
     id="path871"
     inkscape:connector-curvature="0" />
  <path
     style="fill:#ff7f2a;stroke:none;stroke-width:0;stroke-miterlimit:4;stroke-dasharray:none;stroke-opacity:1"
     d="m 306.06848,81.290972 c 4.10897,-7.85933 7.72266,-14.57298 8.03042,-14.91921 0.30776,-0.34623 3.57983,6.08414 7.27127,14.2897 l 6.71171,14.91921 h -14.74212 -14.74212 z"
     id="path873"
     inkscape:connector-curvature="0" />
  <path
     style="fill:#ffcc00;stroke:none;stroke-width:0;stroke-miterlimit:4;stroke-dasharray:none;stroke-opacity:1"
     d="m 293.53097,145.58911 c -2.77422,-1.94314 -5.87669,-9.11878 -5.88631,-13.61431 -0.0124,-5.793 1.58038,-13.11955 3.80772,-17.51499 l 2.01082,-3.96815 h 19.03897 c 16.13743,0 19.03898,0.18428 19.03898,1.20917 0,2.60073 -21.93564,29.45889 -27.29715,33.42283 -2.95244,2.18283 -7.95107,2.4 -10.71303,0.46545 z"
     id="path875"
     inkscape:connector-curvature="0" />
  <path
     style="fill:#ffcc00;stroke:none;stroke-width:0;stroke-miterlimit:4;stroke-dasharray:none;stroke-opacity:1"
     d="m 278.46964,94.549332 c -1.77157,-6.57913 -8.08228,-34.13182 -10.73013,-46.847999 -1.70699,-8.19771 -2.45178,-13.66991 -2.10913,-15.49639 0.74446,-3.96834 3.89118,-6.20888 8.72002,-6.20888 4.31889,0 18.51931,3.75601 26.92963,7.12289 6.32415,2.53173 6.28137,0.91591 0.41451,15.65778 -8.1942,20.589899 -20.95141,49.289099 -21.90969,49.289099 -0.20257,0 -0.79441,-1.58242 -1.31521,-3.5165 z"
     id="path877"
     inkscape:connector-curvature="0" />
  <path
     style="fill:#ffcc00;stroke:none;stroke-width:0;stroke-miterlimit:4;stroke-dasharray:none;stroke-opacity:1"
     d="m 349.80734,94.005542 c -4.25076,-8.33219 -22.40814,-50.814829 -22.40814,-52.428119 0,-1.18416 3.40178,-0.28196 23.19487,6.15166 18.15784,5.902089 27.33261,9.563859 29.99125,11.969889 2.00943,1.81851 1.87465,5.65545 -0.31023,8.8312 -2.14675,3.12035 -27.26443,28.70727 -28.18079,28.70727 -0.351,0 -1.38012,-1.45435 -2.28696,-3.2319 z"
     id="path879"
     inkscape:connector-curvature="0" />
  <path
     style="fill:#000080;stroke:none;stroke-width:0;stroke-miterlimit:4;stroke-dasharray:none;stroke-opacity:1"
     d="m 299.87742,92.888412 c 0.88381,-1.48075 4.49086,-8.21753 8.01566,-14.97064 3.52481,-6.7531 6.53686,-12.15025 6.69345,-11.99366 0.1566,0.15659 3.2641,6.89337 6.90558,14.97063 l 6.62086,14.68593 h -14.92124 -14.92124 z"
     id="path881"
     inkscape:connector-curvature="0" />
  <path
     style="fill:#000080;stroke:none;stroke-width:0;stroke-miterlimit:4;stroke-dasharray:none;stroke-opacity:1"
     d="m 596.74829,123.54468 c -1.98266,-1.02045 -4.85677,-3.2411 -6.38691,-4.93478 -4.33792,-4.80155 -5.49271,-10.18402 -5.62994,-26.241058 -0.11669,-13.65379 -0.0983,-13.80313 2.17886,-17.6769 3.85617,-6.55996 10.46709,-10.57519 18.46926,-11.21752 9.19094,-0.73776 17.0351,3.31956 21.65334,11.20001 2.13387,3.64117 2.27712,4.59586 3.00509,20.02743 0.44699,9.475488 0.46218,19.127798 0.0366,23.245298 l -0.72784,7.0413 -14.49679,0.20577 c -13.60776,0.19317 -14.71787,0.092 -18.10164,-1.64955 z m 15.16446,-10.91286 c 5.14644,-2.15032 5.83653,-4.26 5.83653,-17.842838 0,-13.25786 -0.42392,-14.79598 -4.8161,-17.47408 -5.9446,-3.62469 -14.02456,-0.8996 -16.1773,5.45603 -1.64484,4.85613 -0.90852,22.420248 1.08108,25.788388 2.91513,4.93491 8.28993,6.48999 14.07579,4.0725 z"
     id="path883"
     inkscape:connector-curvature="0" />
  <path
     style="fill:#006680;stroke:none;stroke-width:0;stroke-miterlimit:4;stroke-dasharray:none;stroke-opacity:1"
     d="m 301.55458,89.574862 c 1.79576,-3.3032 5.43832,-10.09912 8.09457,-15.10205 l 4.82954,-9.09622 2.8568,6.19687 c 1.57124,3.40827 4.64634,10.20419 6.83355,15.10204 l 3.97677,8.90517 h -14.92812 -14.92812 z"
     id="path885"
     inkscape:connector-curvature="0" />
  <path
     style="fill:#006680;stroke:none;stroke-width:0;stroke-miterlimit:4;stroke-dasharray:none;stroke-opacity:1"
     d="m 50.733445,125.43002 c -1.88413,-1.19138 -2.362067,-10.74832 -2.435216,-48.695178 l -0.06587,-34.171019 h 29.447338 29.447333 l 2.03142,2.19194 c 2.53654,2.73697 2.55042,3.99148 0.0716,6.4703 -2.38896,2.388959 -4.96167,2.700769 -27.447963,3.326719 -9.112274,0.25365 -17.406512,0.68557 -18.431642,0.95983 -1.823404,0.48783 -1.863874,0.75737 -1.863874,12.41367 v 11.91501 h 6.929585 c 5.756133,0 7.2992,0.29075 9.112271,1.71691 2.934703,2.30843 2.930818,5.95275 -0.0092,8.6775 -1.93562,1.79387 -2.944478,2.03142 -8.627402,2.03142 h -6.435464 l -0.477353,6.42001 c -1.417435,19.063348 -2.152109,24.517338 -3.503771,26.010898 -1.480508,1.63595 -5.683672,2.03336 -7.741745,0.73199 z"
     id="path887"
     inkscape:connector-curvature="0" />
  <path
     style="fill:#006680;stroke:none;stroke-width:0;stroke-miterlimit:4;stroke-dasharray:none;stroke-opacity:1"
     d="m 109.94729,125.11829 c -8.26324,-2.7281 -12.812533,-6.99037 -14.875438,-13.93692 -1.535535,-5.17071 -1.778723,-26.961638 -0.363615,-32.581548 1.851517,-7.35305 10.592883,-14.18083 19.306613,-15.08016 9.12351,-0.94164 18.93044,4.48671 22.89267,12.67158 1.74041,3.59522 1.8143,4.57348 1.46066,19.33837 -0.35852,14.968548 -0.45416,15.690968 -2.55111,19.269138 -5.00597,8.54204 -16.89218,13.28349 -25.86978,10.31954 z m 12.82834,-13.45765 c 3.75084,-2.04146 3.96497,-2.35011 4.45394,-6.42001 0.28252,-2.35149 0.51691,-8.434938 0.52087,-13.518778 l 0.007,-9.24334 -3.69685,-3.80377 c -2.9361,-3.02103 -4.26572,-3.80377 -6.46129,-3.80377 -3.28579,0 -8.96908,3.45241 -10.75332,6.5323 -1.68809,2.91392 -2.56716,12.19286 -1.84192,19.442238 0.55289,5.52655 0.82489,6.1515 4.10824,9.43905 4.29293,4.29843 7.66908,4.63845 13.66313,1.37608 z"
     id="path889"
     inkscape:connector-curvature="0" />
  <path
     style="fill:#006680;stroke:none;stroke-width:0;stroke-miterlimit:4;stroke-dasharray:none;stroke-opacity:1"
     d="m 148.36167,124.85535 c -1.59798,-1.93359 -1.62844,-58.521998 -0.0323,-60.118938 0.76189,-0.76229 4.82637,-1.04869 14.88277,-1.04869 15.43219,0 18.03459,0.69091 20.49041,5.43995 2.85454,5.52007 -0.34078,7.83969 -9.67742,7.02525 -12.53264,-1.09324 -12.35838,-1.49143 -13.93086,31.832438 -0.67479,14.29998 -0.84134,15.40054 -2.53855,16.77486 -2.32679,1.88412 -7.66982,1.93941 -9.194,0.0951 z"
     id="path891"
     inkscape:connector-curvature="0" />
  <path
     style="fill:#006680;stroke:none;stroke-width:0;stroke-miterlimit:4;stroke-dasharray:none;stroke-opacity:1"
     d="m 193.08498,124.64701 -1.95564,-1.58402 V 99.930992 76.798982 l 2.46072,-3.55017 c 3.18759,-4.59885 9.54937,-8.84235 15.12796,-10.09078 4.2741,-0.9565 4.6898,-0.8837 12.13468,2.12508 l 7.70898,3.11551 4.89289,-2.44887 c 10.22176,-5.11595 16.87773,-4.11939 25.06345,3.75261 6.55327,6.30211 6.91447,8.15198 6.58804,33.740578 -0.23597,18.49719 -0.34419,19.67921 -1.9062,20.82023 -2.31824,1.69344 -5.35327,1.10525 -7.21336,-1.39795 -1.40264,-1.88758 -1.62669,-4.14013 -2.01873,-20.29552 -0.24253,-9.994738 -0.80776,-19.377508 -1.25607,-20.850598 -2.25457,-7.40814 -13.81104,-8.36571 -16.47273,-1.36493 -0.43557,1.14566 -1.15686,9.23401 -1.60284,17.97413 -1.03489,20.280908 -1.50765,24.305308 -3.03461,25.832258 -1.71861,1.71861 -5.52523,1.55387 -7.86617,-0.34042 -1.94929,-1.57736 -1.95653,-1.65143 -2.22556,-22.78257 l -0.2699,-21.200048 -3.53063,-2.06909 c -6.24663,-3.66077 -12.9106,-1.93196 -14.14066,3.66846 -0.29038,1.32208 -0.83539,10.7301 -1.21113,20.906698 -0.37575,10.17661 -0.95751,19.16907 -1.29281,19.98324 -0.50694,1.23095 -4.38273,3.9042 -5.66047,3.9042 -0.19996,0 -1.24361,-0.7128 -2.31921,-1.58402 z"
     id="path893"
     inkscape:connector-curvature="0" />
  <path
     style="fill:#006680;stroke:none;stroke-width:0;stroke-miterlimit:4;stroke-dasharray:none;stroke-opacity:1"
     d="m 384.50024,125.00708 c -2.56809,-1.39655 -8.5784,-13.71344 -12.53209,-25.681928 l -2.67091,-8.08529 2.29205,-1.97153 c 4.54816,-3.91217 7.29689,-2.10685 11.78404,7.73954 1.87717,4.119188 3.16261,6.038478 3.69062,5.510468 0.44561,-0.44561 4.19243,-8.228028 8.32627,-17.294258 4.13383,-9.06623 8.24346,-17.50559 9.13248,-18.75412 2.89131,-4.06045 6.66843,-3.87924 8.97498,0.4306 0.99422,1.85771 0.87623,2.79191 -1.02819,8.14092 -3.45108,9.69313 -20.2161,47.894648 -21.77478,49.616968 -1.67238,1.84797 -3.27184,1.93798 -6.19447,0.34863 z"
     id="path895"
     inkscape:connector-curvature="0" />
  <path
     style="fill:#006680;stroke:none;stroke-width:0;stroke-miterlimit:4;stroke-dasharray:none;stroke-opacity:1"
     d="m 437.12636,124.66486 c -6.09242,-1.03776 -12.434,-6.1261 -14.85347,-11.91809 -3.09336,-7.40526 -2.30109,-31.803568 1.25938,-38.782668 4.65755,-9.12955 18.64826,-13.3511 28.71468,-8.66434 4.6265,2.15402 12.4297,9.63211 13.19194,12.6423 0.5583,2.20482 0.0624,45.508998 -0.52724,46.039958 -0.75733,0.68197 -24.38189,1.26256 -27.78529,0.68284 z m 10.22318,-12.02352 c 1.23031,-0.64013 3.16886,-2.16088 4.3079,-3.37943 2.01677,-2.15757 2.07097,-2.53779 2.07097,-14.528168 v -12.31261 l -2.87584,-2.96844 c -1.58172,-1.63265 -4.2569,-3.38222 -5.94485,-3.88794 -2.60246,-0.77972 -3.54335,-0.67332 -6.18946,0.69988 -5.9192,3.07179 -6.52857,4.70805 -6.52319,17.51597 0.004,9.651718 0.24904,11.815528 1.65678,14.633548 2.55405,5.1127 8.3232,6.91947 13.49769,4.22719 z"
     id="path897"
     inkscape:connector-curvature="0" />
  <path
     style="fill:#006680;stroke:none;stroke-width:0;stroke-miterlimit:4;stroke-dasharray:none;stroke-opacity:1"
     d="m 477.42976,124.78136 c -2.43358,-2.01821 -3.40584,-8.20509 -3.40584,-21.67289 0,-13.748668 1.2108,-24.115768 3.29329,-28.197778 2.10365,-4.12348 7.22901,-8.60436 11.86866,-10.37627 11.41137,-4.35804 26.94498,2.85359 29.62023,13.75148 1.20784,4.92024 1.65272,40.041188 0.55718,43.986378 -0.95584,3.44214 -3.61609,4.5056 -6.30146,2.51908 -4.02089,-2.97447 -4.48444,-5.1634 -5.13171,-24.23241 -0.33265,-9.800068 -1.01254,-18.861458 -1.51086,-20.136428 -1.0122,-2.58977 -5.16794,-4.72316 -9.20045,-4.72316 -3.70313,0 -8.15955,2.11261 -9.0832,4.30599 -0.44166,1.0488 -1.18302,10.10796 -1.64746,20.131458 -0.89648,19.34782 -1.64845,23.91082 -4.16212,25.25609 -2.15458,1.1531 -2.87728,1.06283 -4.89626,-0.61154 z"
     id="path899"
     inkscape:connector-curvature="0" />
  <path
     style="fill:#006680;stroke:none;stroke-width:0;stroke-miterlimit:4;stroke-dasharray:none;stroke-opacity:1"
     d="m 532.42498,125.08296 c -4.77482,-2.08096 -5.04847,-3.22728 -2.04573,-8.56945 1.4775,-2.6286 7.43127,-11.6756 13.23061,-20.104448 12.21502,-17.75348 12.89444,-18.91434 11.74372,-20.06506 -0.45884,-0.45885 -5.24625,-1.09241 -10.63869,-1.40792 -5.39243,-0.3155 -10.63877,-1.02915 -11.65852,-1.58587 -3.86017,-2.10744 -3.06507,-7.82149 1.25671,-9.03141 1.23979,-0.3471 10.14559,-0.63108 19.79067,-0.63108 17.51534,0 17.53915,0.002 19.71756,2.049 2.97965,2.79922 2.46119,4.29737 -5.29789,15.30916 -14.21933,20.180278 -20.93155,31.220088 -19.71904,32.432588 0.24669,0.24669 5.86486,0.71474 12.48483,1.04012 10.05187,0.49406 12.31812,0.84663 13.74558,2.13847 2.13421,1.93143 2.19419,4.73641 0.14101,6.59452 -2.90913,2.63272 -37.51098,4.11501 -42.75082,1.83138 z"
     id="path901"
     inkscape:connector-curvature="0" />
  <path
     style="fill:#2c89a0;stroke:none;stroke-width:0;stroke-miterlimit:4;stroke-dasharray:none;stroke-opacity:1"
     d="m 597.80359,124.22763 c -3.79655,-1.65314 -8.51132,-6.10659 -10.41462,-9.83738 -2.02306,-3.96552 -3.72803,-23.037808 -2.81861,-31.529798 0.72345,-6.75552 3.90199,-12.02859 9.32301,-15.46649 11.93693,-7.57018 26.26339,-4.45279 33.09291,7.20092 1.87545,3.20019 2.28867,5.14619 2.8455,13.40032 0.8206,12.164198 0.91509,25.716228 0.22532,32.315598 l -0.5322,5.09184 -14.58588,-0.0324 c -10.30864,-0.0229 -15.33353,-0.35797 -17.13543,-1.14258 z m 14.5741,-11.95588 c 4.47843,-2.37923 5.24156,-4.83712 5.31081,-17.105268 0.0693,-12.27104 -0.74687,-15.23768 -4.89769,-17.80302 -4.94289,-3.05488 -12.90784,-1.23278 -15.46044,3.53682 -1.37655,2.5721 -1.86392,15.08855 -0.84218,21.628808 1.54465,9.88748 8.07732,13.89299 15.8895,9.74266 z"
     id="path903"
     inkscape:connector-curvature="0" />
  <path
     style="fill:#2c89a0;stroke:none;stroke-width:0;stroke-miterlimit:4;stroke-dasharray:none;stroke-opacity:1"
     d="m 532.42498,125.08296 c -4.77293,-2.08014 -5.04775,-3.22689 -2.05373,-8.56945 1.47309,-2.6286 7.02545,-11.11644 12.33857,-18.861868 12.72358,-18.54835 13.72539,-20.22602 12.69378,-21.25762 -0.46245,-0.46246 -4.70343,-1.02637 -9.4244,-1.25314 -9.95019,-0.47794 -13.62763,-1.39944 -14.87329,-3.72696 -1.21424,-2.26884 -0.29729,-5.38887 1.95046,-6.63666 2.08771,-1.15893 29.72029,-2.04725 35.71581,-1.14816 4.66189,0.69909 7.46446,3.22317 6.74807,6.07752 -0.29033,1.15677 -5.32766,9.03594 -11.19405,17.50928 -10.61812,15.336668 -16.55781,25.226588 -15.6786,26.105788 0.2539,0.2539 5.91646,0.76576 12.58347,1.13746 10.01538,0.55838 12.41648,0.94247 13.81741,2.2103 2.11248,1.91176 2.1782,4.72611 0.15315,6.55875 -2.97843,2.69544 -37.42105,4.18885 -42.77665,1.85476 z"
     id="path905"
     inkscape:connector-curvature="0" />
  <path
     style="fill:#2c89a0;stroke:none;stroke-width:0;stroke-miterlimit:4;stroke-dasharray:none;stroke-opacity:1"
     d="m 477.42976,124.78136 c -2.43358,-2.01821 -3.40584,-8.20509 -3.40584,-21.67289 0,-13.748668 1.2108,-24.115768 3.29329,-28.197778 2.10365,-4.12348 7.22901,-8.60436 11.86866,-10.37627 11.45333,-4.37407 26.92239,2.80445 29.62679,13.74849 1.21838,4.93051 1.66191,40.038178 0.55574,43.989368 -0.96399,3.44333 -3.62198,4.50503 -6.30658,2.51908 -3.9783,-2.94297 -4.43907,-5.11646 -5.17127,-24.39361 -0.75989,-20.006058 -1.29759,-22.210698 -5.79987,-23.780198 -5.45935,-1.90314 -12.53551,-0.17557 -13.88875,3.39077 -0.39735,1.04717 -1.13572,10.10499 -1.64085,20.128488 -0.97747,19.39685 -1.73568,23.91847 -4.23506,25.25609 -2.15458,1.1531 -2.87728,1.06283 -4.89626,-0.61154 z"
     id="path907"
     inkscape:connector-curvature="0" />
  <path
     style="fill:#2c89a0;stroke:none;stroke-width:0;stroke-miterlimit:4;stroke-dasharray:none;stroke-opacity:1"
     d="m 436.67732,124.65786 c -5.90036,-1.20518 -12.07854,-6.34314 -14.44802,-12.01542 -3.03523,-7.26603 -2.30622,-31.622128 1.14813,-38.358738 4.89052,-9.53741 18.32376,-13.7935 28.63545,-9.07265 4.946,2.26435 12.61872,9.49825 13.4074,12.6406 0.55899,2.22719 0.0808,45.599378 -0.50863,46.133698 -0.77205,0.69985 -25.24638,1.2828 -28.23433,0.67251 z m 10.77929,-12.30361 c 5.65911,-2.88566 6.2718,-4.66082 6.2718,-18.171618 v -12.04558 l -3.51774,-3.12172 c -1.93475,-1.71694 -4.54417,-3.32263 -5.79871,-3.56818 -3.43508,-0.67235 -8.94019,2.08075 -10.60738,5.30475 -2.8781,5.56563 -2.28241,24.660778 0.91158,29.220828 2.7294,3.89677 7.88053,4.85965 12.74045,2.38152 z"
     id="path909"
     inkscape:connector-curvature="0" />
  <path
     style="fill:#2c89a0;stroke:none;stroke-width:0;stroke-miterlimit:4;stroke-dasharray:none;stroke-opacity:1"
     d="m 384.50024,125.00708 c -2.53226,-1.37707 -8.36147,-13.27871 -12.51426,-25.550688 l -2.75317,-8.13591 2.32426,-2.01185 c 4.50606,-3.90037 7.52048,-2.13778 11.3857,6.65746 1.50866,3.43293 3.17514,6.241688 3.70329,6.241688 0.52815,0 4.46811,-7.700428 8.75547,-17.112068 9.90193,-21.73679 12.26518,-24.4688 17.03769,-19.6963 1.71018,1.71019 2.02468,2.63189 1.60833,4.71364 -1.12473,5.62367 -20.96624,51.908238 -23.40978,54.608318 -1.61691,1.78667 -3.23863,1.86216 -6.13753,0.28571 z"
     id="path911"
     inkscape:connector-curvature="0" />
  <path
     style="fill:#2c89a0;stroke:none;stroke-width:0;stroke-miterlimit:4;stroke-dasharray:none;stroke-opacity:1"
     d="m 301.94717,88.746472 c 2.02166,-3.75881 5.61865,-10.46876 7.99332,-14.91099 2.37467,-4.44223 4.43581,-8.07679 4.58032,-8.07679 0.22728,0 5.20059,10.78399 11.74751,25.47294 l 1.93838,4.34904 h -14.96763 -14.96762 z"
     id="path913"
     inkscape:connector-curvature="0" />
  <path
     style="fill:#2c89a0;stroke:none;stroke-width:0;stroke-miterlimit:4;stroke-dasharray:none;stroke-opacity:1"
     d="m 192.39539,124.00176 c -1.70271,-2.16465 -1.74649,-2.88108 -1.5098,-24.707218 l 0.24375,-22.47792 2.27299,-3.43257 c 2.9456,-4.4483 9.72521,-8.97492 15.31569,-10.22602 4.2741,-0.9565 4.6898,-0.8837 12.13468,2.12508 l 7.70898,3.11551 4.94405,-2.49576 c 6.8099,-3.43762 9.96543,-3.89193 15.61833,-2.24859 3.67541,1.06848 5.75495,2.39839 9.51475,6.08491 6.41141,6.28645 6.79172,8.26842 6.46725,33.703758 -0.23597,18.49719 -0.34419,19.67921 -1.9062,20.82023 -2.30917,1.68682 -5.35123,1.10803 -7.19116,-1.36821 -1.36752,-1.84046 -1.63471,-4.44374 -2.21054,-21.5381 -0.41895,-12.437068 -1.01625,-20.113218 -1.65739,-21.299888 -1.99523,-3.69289 -8.78118,-5.54663 -12.67531,-3.46255 -3.03417,1.62383 -3.91073,5.70822 -4.80581,22.39276 -1.06405,19.834378 -1.52977,23.645018 -3.07916,25.194408 -1.69978,1.69978 -5.51513,1.52399 -7.84514,-0.36145 -1.94929,-1.57736 -1.95653,-1.65143 -2.22556,-22.78257 l -0.2699,-21.200048 -3.53063,-2.06909 c -4.52763,-2.65337 -8.77172,-2.70031 -11.7598,-0.13008 -2.08426,1.79281 -2.30284,2.58915 -2.899,10.56195 -0.35462,4.74263 -0.66572,12.764638 -0.69133,17.826698 -0.0708,13.98915 -0.61953,16.75868 -3.69186,18.63215 -3.39481,2.07012 -4.19216,1.98654 -6.27188,-0.65739 z"
     id="path915"
     inkscape:connector-curvature="0" />
  <path
     style="fill:#2c89a0;stroke:none;stroke-width:0;stroke-miterlimit:4;stroke-dasharray:none;stroke-opacity:1"
     d="m 148.36167,124.85644 c -1.62364,-1.96308 -1.6806,-58.471138 -0.0606,-60.091888 0.79721,-0.79756 4.6643,-1.07683 14.91099,-1.07683 15.43219,0 18.03459,0.69091 20.49041,5.43995 2.83959,5.49116 -0.36601,7.85194 -9.61451,7.08064 -12.48246,-1.041 -12.4182,-1.18899 -13.96527,32.166458 -0.64699,13.94925 -0.80326,14.95721 -2.53645,16.36067 -2.35545,1.90733 -7.68927,1.9773 -9.2246,0.121 z"
     id="path917"
     inkscape:connector-curvature="0" />
  <path
     style="fill:#2c89a0;stroke:none;stroke-width:0;stroke-miterlimit:4;stroke-dasharray:none;stroke-opacity:1"
     d="m 109.94729,125.07227 c -8.15467,-2.57898 -12.806046,-6.92251 -14.875438,-13.8909 -1.535535,-5.17071 -1.778723,-26.961638 -0.363615,-32.581548 1.876102,-7.45069 10.496393,-14.17087 19.349753,-15.08462 9.16312,-0.94572 18.85575,4.42598 22.84112,12.65867 1.72497,3.56331 1.80649,4.61785 1.49098,19.28664 -0.32686,15.196258 -0.38145,15.598598 -2.63914,19.451058 -2.77019,4.72696 -7.60878,8.40992 -13.24956,10.08505 -4.94892,1.46967 -8.08646,1.48857 -12.5541,0.0756 z m 11.89295,-12.86329 c 5.18669,-2.64605 5.32717,-3.06118 5.71114,-16.877178 l 0.34993,-12.59114 -3.49118,-3.53142 c -1.92014,-1.94229 -4.35571,-3.74841 -5.41237,-4.01361 -2.88956,-0.72524 -7.18536,1.02514 -10.2331,4.16961 -2.35428,2.42901 -2.81573,3.62415 -3.43231,8.88957 -0.39178,3.34581 -0.4885,8.87909 -0.21493,12.296188 0.48019,5.99781 0.6231,6.3348 4.12787,9.73356 4.20177,4.07469 7.41708,4.56597 12.59495,1.92442 z"
     id="path919"
     inkscape:connector-curvature="0" />
  <path
     style="fill:#2c89a0;stroke:none;stroke-width:0;stroke-miterlimit:4;stroke-dasharray:none;stroke-opacity:1"
     d="m 50.733445,125.43002 c -1.88413,-1.19138 -2.362067,-10.74832 -2.435216,-48.695178 l -0.06587,-34.171019 h 29.447338 29.447333 l 2.03142,2.19194 c 2.53654,2.73697 2.55042,3.99148 0.0716,6.4703 -2.38045,2.380449 -4.90266,2.691599 -27.326103,3.371069 -9.045246,0.27408 -17.339484,0.83807 -18.431637,1.25331 -1.965111,0.74714 -1.985739,0.87566 -1.985739,12.37292 v 11.61793 h 6.929585 c 5.756133,0 7.2992,0.29075 9.112271,1.71691 2.85329,2.2444 2.91638,5.9086 0.14937,8.6756 -1.818057,1.81806 -2.73102,2.03332 -8.623714,2.03332 h -6.590396 l -0.482607,7.2484 c -1.051878,15.798418 -2.157671,23.692758 -3.531365,25.210678 -1.45581,1.60864 -5.676483,1.99362 -7.716268,0.70382 z"
     id="path921"
     inkscape:connector-curvature="0" />
  <path
     style="fill:#ffcc00;stroke:none;stroke-width:0;stroke-miterlimit:4;stroke-dasharray:none;stroke-opacity:1"
     d="m 349.04639,92.474222 c -4.4936,-8.91863 -21.64719,-49.262969 -21.64719,-50.913049 0,-1.1828 3.63957,-0.21631 23.19487,6.15944 18.20514,5.935559 27.34981,9.587889 29.99125,11.978359 2.20905,1.99916 1.88567,6.26428 -0.72154,9.51682 -3.13712,3.91358 -27.05284,28.02165 -27.79808,28.02165 -0.34067,0 -1.69936,-2.14344 -3.01931,-4.76322 z"
     id="path923"
     inkscape:connector-curvature="0" />
</svg>
